{"title":"Naughty Boy Ft. Emeli Sande - Lifted [Music Video] 720p [Sbyky]","uid":8803002,"size":36140812,"categoryP":"video","categoryS":"music_videos","magnet":"?xt=urn:btih:2ce86971537ddbaaa20fa019b9e27af0ff4d8ae9&amp;dn=Naughty+Boy+Ft.+Emeli+Sande+-+Lifted+%5BMusic+Video%5D+720p+%5BSbyky%5D&amp;tr=udp%3A%2F%2Ftracker.openbittorrent.com%3A80&amp;tr=udp%3A%2F%2Fopen.demonii.com%3A1337&amp;tr=udp%3A%2F%2Ftracker.coppersurfer.tk%3A6969&amp;tr=udp%3A%2F%2Fexodus.desync.com%3A6969","seeders":1,"leechers":0,"uploader":"Sbyky","files":-1,"time":1376257206,"description":"[IMG]http://www.shotpix.com/photos/20130811137624417765570.jpg[/IMG]\n\nGeneral\nComplete name                            : Naughty Boy Ft. Emeli Sande - Lifted [Music Video] 720p [Sbyky].mp4\nFormat                                   : MPEG-4\nFormat profile                           : Base Media / Version 2\nCodec ID                                 : mp42\nFile size                                : 34.5 MiB\nDuration                                 : 3mn 25s\nOverall bit rate mode                    : Variable\nOverall bit rate                         : 1 407 Kbps\nEncoded date                             : UTC 2013-07-30 07:57:09\nTagged date                              : UTC 2013-07-30 07:57:09\n\nVideo\nID                                       : 1\nFormat                                   : AVC\nFormat/Info                              : Advanced Video Codec\nFormat profile                           : &lt;a class=&quot;__cf_email__&quot; href=&quot;/cdn-cgi/l/email-protection&quot; data-cfemail=&quot;377f5e505f777b041906&quot;&gt;[email&amp;#160;protected]&lt;/a&gt;&lt;script cf-hash='f9e31' type=&quot;text/javascript&quot;&gt;\n/* &lt;![CDATA[ */!function(){try{var t=&quot;currentScript&quot;in document?document.currentScript:function(){for(var t=document.getElementsByTagName(&quot;script&quot;),e=t.length;e--;)if(t[e].getAttribute(&quot;cf-hash&quot;))return t[e]}();if(t&amp;&amp;t.previousSibling){var e,r,n,i,c=t.previousSibling,a=c.getAttribute(&quot;data-cfemail&quot;);if(a){for(e=&quot;&quot;,r=parseInt(a.substr(0,2),16),n=2;a.length-n;n+=2)i=parseInt(a.substr(n,2),16)^r,e+=String.fromCharCode(i);e=document.createTextNode(e),c.parentNode.replaceChild(e,c)}}}catch(u){}}();/* ]]&gt; */&lt;/script&gt;\nFormat settings, CABAC                   : Yes\nFormat settings, ReFrames                : 1 frame\nCodec ID                                 : avc1\nCodec ID/Info                            : Advanced Video Coding\nDuration                                 : 3mn 25s\nBit rate                                 : 1 213 Kbps\nMaximum bit rate                         : 5 269 Kbps\nWidth                                    : 1 280 pixels\nHeight                                   : 720 pixels\nDisplay aspect ratio                     : 16:9\nFrame rate mode                          : Constant\nFrame rate                               : 25.000 fps\nColor space                              : YUV\nChroma subsampling                       : 4:2:0\nBit depth                                : 8 bits\nScan type                                : Progressive\nBits/(Pixel*Frame)                       : 0.053\nStream size                              : 29.7 MiB (86%)\nTagged date                              : UTC 2013-07-30 07:57:12\n\nAudio\nID                                       : 2\nFormat                                   : AAC\nFormat/Info                              : Advanced Audio Codec\nFormat profile                           : LC\nCodec ID                                 : 40\nDuration                                 : 3mn 25s\nBit rate mode                            : Variable\nBit rate                                 : 192 Kbps\nMaximum bit rate                         : 203 Kbps\nChannel(s)                               : 2 channels\nChannel positions                        : Front: L R\nSampling rate                            : 44.1 KHz\nCompression mode                         : Lossy\nStream size                              : 4.70 MiB (14%)\nTitle                                    : IsoMedia File Produced by Google, 5-11-2011\nEncoded date                             : UTC 2013-07-30 07:57:11\nTagged date                              : UTC 2013-07-30 07:57:12\n\nShared By Sbyky\n[IMG]http://www.shotpix.com/photos/20130722137449689157289.gif[/IMG]\n[IMG]http://www.shotpix.com/photos/20130722137449694197310.gif[/IMG]","torrent":{"xt":"urn:btih:2ce86971537ddbaaa20fa019b9e27af0ff4d8ae9","amp;dn":"Naughty+Boy+Ft.+Emeli+Sande+-+Lifted+%5BMusic+Video%5D+720p+%5BSbyky%5D","amp;tr":["udp%3A%2F%2Ftracker.openbittorrent.com%3A80","udp%3A%2F%2Fopen.demonii.com%3A1337","udp%3A%2F%2Ftracker.coppersurfer.tk%3A6969","udp%3A%2F%2Fexodus.desync.com%3A6969"],"infoHash":"2ce86971537ddbaaa20fa019b9e27af0ff4d8ae9","infoHashBuffer":{"type":"Buffer","data":[44,232,105,113,83,125,219,170,162,15,160,25,185,226,122,240,255,77,138,233]},"announce":[],"urlList":[]}}